<svg width="1510" height="380" viewBox="0 0 1510 380" fill="none" xmlns="http://www.w3.org/2000/svg">
<g filter="url(#filter0_dd_1510_708)">
<path d="M4 155.145L52.7467 155.944C101.387 156.844 198.88 158.443 296.48 161.842C394.08 165.141 491.787 170.139 589.387 151.446C686.987 132.854 784.48 90.4718 881.867 67.8812C979.253 45.1906 1076.75 42.1918 1174.13 57.9853C1271.52 73.8786 1369.01 108.464 1466.61 100.667C1564.21 92.8707 1661.92 42.4917 1759.52 19.2014C1857.12 -4.08888 1954.61 -0.490365 2003.25 1.40884L2052 3.20808V503H2003.25C1954.61 503 1857.12 503 1759.52 503C1661.92 503 1564.21 503 1466.61 503C1369.01 503 1271.52 503 1174.13 503C1076.75 503 979.253 503 881.867 503C784.48 503 686.987 503 589.387 503C491.787 503 394.08 503 296.48 503C198.88 503 101.387 503 52.7467 503H4V155.145Z" fill="#FA7268"/>
<path d="M4 159.145L52.7467 153.647C101.387 148.149 198.88 137.154 296.48 151.348C394.08 165.442 491.787 204.826 589.387 222.418C686.987 240.111 784.48 236.113 881.867 235.313C979.253 234.414 1076.75 236.813 1174.13 233.114C1271.52 229.416 1369.01 219.82 1466.61 198.928C1564.21 178.137 1661.92 146.15 1759.52 134.855C1857.12 123.46 1954.61 132.856 2003.25 137.454L2052 142.152V503.002H2003.25C1954.61 503.002 1857.12 503.002 1759.52 503.002C1661.92 503.002 1564.21 503.002 1466.61 503.002C1369.01 503.002 1271.52 503.002 1174.13 503.002C1076.75 503.002 979.253 503.002 881.867 503.002C784.48 503.002 686.987 503.002 589.387 503.002C491.787 503.002 394.08 503.002 296.48 503.002C198.88 503.002 101.387 503.002 52.7467 503.002H4V159.145Z" fill="#EF5F67"/>
<path d="M4 156.145L52.7467 174.437C101.387 192.829 198.88 229.414 296.48 241.609C394.08 253.804 491.787 241.409 589.387 231.313C686.987 221.117 784.48 213.121 881.867 218.619C979.253 224.116 1076.75 243.108 1174.13 244.608C1271.52 246.107 1369.01 230.114 1466.61 236.911C1564.21 243.808 1661.92 273.396 1759.52 284.091C1857.12 294.787 1954.61 286.39 2003.25 282.292L2052 278.094V503H2003.25C1954.61 503 1857.12 503 1759.52 503C1661.92 503 1564.21 503 1466.61 503C1369.01 503 1271.52 503 1174.13 503C1076.75 503 979.253 503 881.867 503C784.48 503 686.987 503 589.387 503C491.787 503 394.08 503 296.48 503C198.88 503 101.387 503 52.7467 503H4V156.145Z" fill="#E34C67"/>
<path d="M4 371.054L52.7467 355.561C101.387 340.067 198.88 309.08 296.48 310.379C394.08 311.779 491.787 345.365 589.387 351.862C686.987 358.359 784.48 337.768 881.867 318.276C979.253 298.784 1076.75 280.392 1174.13 281.591C1271.52 282.791 1369.01 303.382 1466.61 307.581C1564.21 311.779 1661.92 299.384 1759.52 291.387C1857.12 283.391 1954.61 279.792 2003.25 277.893L2052 276.094V502.999H2003.25C1954.61 502.999 1857.12 502.999 1759.52 502.999C1661.92 502.999 1564.21 502.999 1466.61 502.999C1369.01 502.999 1271.52 502.999 1174.13 502.999C1076.75 502.999 979.253 502.999 881.867 502.999C784.48 502.999 686.987 502.999 589.387 502.999C491.787 502.999 394.08 502.999 296.48 502.999C198.88 502.999 101.387 502.999 52.7467 502.999H4V371.054Z" fill="#D53867"/>
<path d="M4 413.036L52.7467 403.24C101.387 393.344 198.88 373.753 296.48 375.852C394.08 378.051 491.787 402.041 589.387 414.336C686.987 426.731 784.48 427.33 881.867 426.031C979.253 424.731 1076.75 421.333 1174.13 421.533C1271.52 421.733 1369.01 425.331 1466.61 417.334C1564.21 409.338 1661.92 389.746 1759.52 376.551C1857.12 363.357 1954.61 356.76 2003.25 353.361L2052 350.062V502.999H2003.25C1954.61 502.999 1857.12 502.999 1759.52 502.999C1661.92 502.999 1564.21 502.999 1466.61 502.999C1369.01 502.999 1271.52 502.999 1174.13 502.999C1076.75 502.999 979.253 502.999 881.867 502.999C784.48 502.999 686.987 502.999 589.387 502.999C491.787 502.999 394.08 502.999 296.48 502.999C198.88 502.999 101.387 502.999 52.7467 502.999H4V413.036Z" fill="#C62368"/>
</g>
<defs>
<filter id="filter0_dd_1510_708" x="0" y="0" width="2056" height="511" filterUnits="userSpaceOnUse" color-interpolation-filters="sRGB">
<feFlood flood-opacity="0" result="BackgroundImageFix"/>
<feColorMatrix in="SourceAlpha" type="matrix" values="0 0 0 0 0 0 0 0 0 0 0 0 0 0 0 0 0 0 127 0" result="hardAlpha"/>
<feOffset dy="4"/>
<feGaussianBlur stdDeviation="2"/>
<feComposite in2="hardAlpha" operator="out"/>
<feColorMatrix type="matrix" values="0 0 0 0 0 0 0 0 0 0 0 0 0 0 0 0 0 0 0.25 0"/>
<feBlend mode="normal" in2="BackgroundImageFix" result="effect1_dropShadow_1510_708"/>
<feColorMatrix in="SourceAlpha" type="matrix" values="0 0 0 0 0 0 0 0 0 0 0 0 0 0 0 0 0 0 127 0" result="hardAlpha"/>
<feOffset dy="4"/>
<feGaussianBlur stdDeviation="2"/>
<feComposite in2="hardAlpha" operator="out"/>
<feColorMatrix type="matrix" values="0 0 0 0 0 0 0 0 0 0 0 0 0 0 0 0 0 0 0.25 0"/>
<feBlend mode="normal" in2="effect1_dropShadow_1510_708" result="effect2_dropShadow_1510_708"/>
<feBlend mode="normal" in="SourceGraphic" in2="effect2_dropShadow_1510_708" result="shape"/>
</filter>
</defs>
</svg>
