<svg width="960" height="540" viewBox="0 0 960 540" fill="none" xmlns="http://www.w3.org/2000/svg">
<g clip-path="url(#clip0_1514_715)">
<path d="M960 0H0V540H960V0Z" fill="#FA7268"/>
<path d="M0 147L22.8 150.8C45.7 154.7 91.3 162.3 137 149.5C182.7 136.7 228.3 103.3 274 88.2004C319.7 73.0004 365.3 76.0004 411.2 84.5004C457 93.0004 503 107 548.8 108.2C594.7 109.3 640.3 97.7004 686 100.7C731.7 103.7 777.3 121.3 823 128.2C868.7 135 914.3 131 937.2 129L960 127V541H937.2C914.3 541 868.7 541 823 541C777.3 541 731.7 541 686 541C640.3 541 594.7 541 548.8 541C503 541 457 541 411.2 541C365.3 541 319.7 541 274 541C228.3 541 182.7 541 137 541C91.3 541 45.7 541 22.8 541H0V147Z" fill="#FA7268"/>
<path d="M0 298L22.8 288.3C45.7 278.7 91.3 259.3 137 243.5C182.7 227.7 228.3 215.3 274 223C319.7 230.7 365.3 258.3 411.2 276C457 293.7 503 301.3 548.8 295.5C594.7 289.7 640.3 270.3 686 257.2C731.7 244 777.3 237 823 234.5C868.7 232 914.3 234 937.2 235L960 236V541H937.2C914.3 541 868.7 541 823 541C777.3 541 731.7 541 686 541C640.3 541 594.7 541 548.8 541C503 541 457 541 411.2 541C365.3 541 319.7 541 274 541C228.3 541 182.7 541 137 541C91.3 541 45.7 541 22.8 541H0V298Z" fill="#E34C67"/>
<path d="M0 431L22.8 415.8C45.7 400.7 91.3 370.3 137 374.2C182.7 378 228.3 416 274 423.7C319.7 431.3 365.3 408.7 411.2 398.8C457 389 503 392 548.8 399.8C594.7 407.7 640.3 420.3 686 425.7C731.7 431 777.3 429 823 434.8C868.7 440.7 914.3 454.3 937.2 461.2L960 468V541H937.2C914.3 541 868.7 541 823 541C777.3 541 731.7 541 686 541C640.3 541 594.7 541 548.8 541C503 541 457 541 411.2 541C365.3 541 319.7 541 274 541C228.3 541 182.7 541 137 541C91.3 541 45.7 541 22.8 541H0V431Z" fill="#C62368"/>
</g>
<defs>
<clipPath id="clip0_1514_715">
<rect width="960" height="540" fill="white"/>
</clipPath>
</defs>
</svg>
