<svg width="960" height="470" viewBox="0 0 960 470" fill="none" xmlns="http://www.w3.org/2000/svg">
<path d="M960 0H0V470H960V0Z" fill="#FA7268"/>
<path d="M0 77.0004L22.8 80.8004C45.7 84.7004 91.3 92.3004 137 79.5004C182.7 66.7004 228.3 33.3004 274 18.2004C319.7 3.00038 365.3 6.00038 411.2 14.5004C457 23.0004 503 37.0004 548.8 38.2004C594.7 39.3004 640.3 27.7004 686 30.7004C731.7 33.7004 777.3 51.3004 823 58.2004C868.7 65.0004 914.3 61.0004 937.2 59.0004L960 57.0004V471H937.2C914.3 471 868.7 471 823 471C777.3 471 731.7 471 686 471C640.3 471 594.7 471 548.8 471C503 471 457 471 411.2 471C365.3 471 319.7 471 274 471C228.3 471 182.7 471 137 471C91.3 471 45.7 471 22.8 471H0V77.0004Z" fill="#FA7268"/>
<path d="M0 228L22.8 218.3C45.7 208.7 91.3 189.3 137 173.5C182.7 157.7 228.3 145.3 274 153C319.7 160.7 365.3 188.3 411.2 206C457 223.7 503 231.3 548.8 225.5C594.7 219.7 640.3 200.3 686 187.2C731.7 174 777.3 167 823 164.5C868.7 162 914.3 164 937.2 165L960 166V471H937.2C914.3 471 868.7 471 823 471C777.3 471 731.7 471 686 471C640.3 471 594.7 471 548.8 471C503 471 457 471 411.2 471C365.3 471 319.7 471 274 471C228.3 471 182.7 471 137 471C91.3 471 45.7 471 22.8 471H0V228Z" fill="#E34C67"/>
<path d="M0 361L22.8 345.8C45.7 330.7 91.3 300.3 137 304.2C182.7 308 228.3 346 274 353.7C319.7 361.3 365.3 338.7 411.2 328.8C457 319 503 322 548.8 329.8C594.7 337.7 640.3 350.3 686 355.7C731.7 361 777.3 359 823 364.8C868.7 370.7 914.3 384.3 937.2 391.2L960 398V471H937.2C914.3 471 868.7 471 823 471C777.3 471 731.7 471 686 471C640.3 471 594.7 471 548.8 471C503 471 457 471 411.2 471C365.3 471 319.7 471 274 471C228.3 471 182.7 471 137 471C91.3 471 45.7 471 22.8 471H0V361Z" fill="#C62368"/>
</svg>
