<svg width="1920" height="504" viewBox="0 0 1920 504" fill="none" xmlns="http://www.w3.org/2000/svg">
<path d="M0 155.209L45.7 156.009C91.3 156.909 182.7 158.509 274.2 161.909C365.7 165.209 457.3 170.209 548.8 151.509C640.3 132.909 731.7 90.5094 823 67.9094C914.3 45.2094 1005.7 42.2094 1097 58.0094C1188.3 73.9094 1279.7 108.509 1371.2 100.709C1462.7 92.9094 1554.3 42.5094 1645.8 19.2094C1737.3 -4.09058 1828.7 -0.490569 1874.3 1.40943L1920 3.20942V503.209H1874.3C1828.7 503.209 1737.3 503.209 1645.8 503.209C1554.3 503.209 1462.7 503.209 1371.2 503.209C1279.7 503.209 1188.3 503.209 1097 503.209C1005.7 503.209 914.3 503.209 823 503.209C731.7 503.209 640.3 503.209 548.8 503.209C457.3 503.209 365.7 503.209 274.2 503.209C182.7 503.209 91.3 503.209 45.7 503.209H0V155.209Z" fill="#FA7268"/>
<path d="M0 159.209L45.7 153.709C91.3 148.209 182.7 137.209 274.2 151.409C365.7 165.509 457.3 204.909 548.8 222.509C640.3 240.209 731.7 236.209 823 235.409C914.3 234.509 1005.7 236.909 1097 233.209C1188.3 229.509 1279.7 219.909 1371.2 199.009C1462.7 178.209 1554.3 146.209 1645.8 134.909C1737.3 123.509 1828.7 132.909 1874.3 137.509L1920 142.209V503.209H1874.3C1828.7 503.209 1737.3 503.209 1645.8 503.209C1554.3 503.209 1462.7 503.209 1371.2 503.209C1279.7 503.209 1188.3 503.209 1097 503.209C1005.7 503.209 914.3 503.209 823 503.209C731.7 503.209 640.3 503.209 548.8 503.209C457.3 503.209 365.7 503.209 274.2 503.209C182.7 503.209 91.3 503.209 45.7 503.209H0V159.209Z" fill="#EF5F67"/>
<path d="M0 156.209L45.7 174.509C91.3 192.909 182.7 229.509 274.2 241.709C365.7 253.909 457.3 241.509 548.8 231.409C640.3 221.209 731.7 213.209 823 218.709C914.3 224.209 1005.7 243.209 1097 244.709C1188.3 246.209 1279.7 230.209 1371.2 237.009C1462.7 243.909 1554.3 273.509 1645.8 284.209C1737.3 294.909 1828.7 286.509 1874.3 282.409L1920 278.209V503.209H1874.3C1828.7 503.209 1737.3 503.209 1645.8 503.209C1554.3 503.209 1462.7 503.209 1371.2 503.209C1279.7 503.209 1188.3 503.209 1097 503.209C1005.7 503.209 914.3 503.209 823 503.209C731.7 503.209 640.3 503.209 548.8 503.209C457.3 503.209 365.7 503.209 274.2 503.209C182.7 503.209 91.3 503.209 45.7 503.209H0V156.209Z" fill="#E34C67"/>
<path d="M0 371.209L45.7 355.709C91.3 340.209 182.7 309.209 274.2 310.509C365.7 311.909 457.3 345.509 548.8 352.009C640.3 358.509 731.7 337.909 823 318.409C914.3 298.909 1005.7 280.509 1097 281.709C1188.3 282.909 1279.7 303.509 1371.2 307.709C1462.7 311.909 1554.3 299.509 1645.8 291.509C1737.3 283.509 1828.7 279.909 1874.3 278.009L1920 276.209V503.209H1874.3C1828.7 503.209 1737.3 503.209 1645.8 503.209C1554.3 503.209 1462.7 503.209 1371.2 503.209C1279.7 503.209 1188.3 503.209 1097 503.209C1005.7 503.209 914.3 503.209 823 503.209C731.7 503.209 640.3 503.209 548.8 503.209C457.3 503.209 365.7 503.209 274.2 503.209C182.7 503.209 91.3 503.209 45.7 503.209H0V371.209Z" fill="#D53867"/>
<path d="M0 413.209L45.7 403.409C91.3 393.509 182.7 373.909 274.2 376.009C365.7 378.209 457.3 402.209 548.8 414.509C640.3 426.909 731.7 427.509 823 426.209C914.3 424.909 1005.7 421.509 1097 421.709C1188.3 421.909 1279.7 425.509 1371.2 417.509C1462.7 409.509 1554.3 389.909 1645.8 376.709C1737.3 363.509 1828.7 356.909 1874.3 353.509L1920 350.209V503.209H1874.3C1828.7 503.209 1737.3 503.209 1645.8 503.209C1554.3 503.209 1462.7 503.209 1371.2 503.209C1279.7 503.209 1188.3 503.209 1097 503.209C1005.7 503.209 914.3 503.209 823 503.209C731.7 503.209 640.3 503.209 548.8 503.209C457.3 503.209 365.7 503.209 274.2 503.209C182.7 503.209 91.3 503.209 45.7 503.209H0V413.209Z" fill="#C62368"/>
</svg>
