<svg id="visual" viewBox="0 0 900 600" width="900" height="600" xmlns="http://www.w3.org/2000/svg" xmlns:xlink="http://www.w3.org/1999/xlink" version="1.1"><rect x="0" y="0" width="900" height="600" fill="#202225"></rect><path d="M0 421L18.8 422.5C37.7 424 75.3 427 112.8 422.7C150.3 418.3 187.7 406.7 225.2 402.7C262.7 398.7 300.3 402.3 337.8 410C375.3 417.7 412.7 429.3 450.2 431.8C487.7 434.3 525.3 427.7 562.8 414.2C600.3 400.7 637.7 380.3 675.2 370.8C712.7 361.3 750.3 362.7 787.8 361.2C825.3 359.7 862.7 355.3 881.3 353.2L900 351L900 601L881.3 601C862.7 601 825.3 601 787.8 601C750.3 601 712.7 601 675.2 601C637.7 601 600.3 601 562.8 601C525.3 601 487.7 601 450.2 601C412.7 601 375.3 601 337.8 601C300.3 601 262.7 601 225.2 601C187.7 601 150.3 601 112.8 601C75.3 601 37.7 601 18.8 601L0 601Z" fill="#fa7268"></path><path d="M0 412L18.8 412.3C37.7 412.7 75.3 413.3 112.8 415.3C150.3 417.3 187.7 420.7 225.2 427C262.7 433.3 300.3 442.7 337.8 450.3C375.3 458 412.7 464 450.2 454.5C487.7 445 525.3 420 562.8 415.8C600.3 411.7 637.7 428.3 675.2 434.7C712.7 441 750.3 437 787.8 429.7C825.3 422.3 862.7 411.7 881.3 406.3L900 401L900 601L881.3 601C862.7 601 825.3 601 787.8 601C750.3 601 712.7 601 675.2 601C637.7 601 600.3 601 562.8 601C525.3 601 487.7 601 450.2 601C412.7 601 375.3 601 337.8 601C300.3 601 262.7 601 225.2 601C187.7 601 150.3 601 112.8 601C75.3 601 37.7 601 18.8 601L0 601Z" fill="#ef5f67"></path><path d="M0 469L18.8 468.2C37.7 467.3 75.3 465.7 112.8 469C150.3 472.3 187.7 480.7 225.2 481.8C262.7 483 300.3 477 337.8 475.3C375.3 473.7 412.7 476.3 450.2 475C487.7 473.7 525.3 468.3 562.8 468.3C600.3 468.3 637.7 473.7 675.2 476C712.7 478.3 750.3 477.7 787.8 480.5C825.3 483.3 862.7 489.7 881.3 492.8L900 496L900 601L881.3 601C862.7 601 825.3 601 787.8 601C750.3 601 712.7 601 675.2 601C637.7 601 600.3 601 562.8 601C525.3 601 487.7 601 450.2 601C412.7 601 375.3 601 337.8 601C300.3 601 262.7 601 225.2 601C187.7 601 150.3 601 112.8 601C75.3 601 37.7 601 18.8 601L0 601Z" fill="#e34c67"></path><path d="M0 504L18.8 504.7C37.7 505.3 75.3 506.7 112.8 508.3C150.3 510 187.7 512 225.2 514.5C262.7 517 300.3 520 337.8 523.8C375.3 527.7 412.7 532.3 450.2 534.5C487.7 536.7 525.3 536.3 562.8 535.5C600.3 534.7 637.7 533.3 675.2 531.7C712.7 530 750.3 528 787.8 529C825.3 530 862.7 534 881.3 536L900 538L900 601L881.3 601C862.7 601 825.3 601 787.8 601C750.3 601 712.7 601 675.2 601C637.7 601 600.3 601 562.8 601C525.3 601 487.7 601 450.2 601C412.7 601 375.3 601 337.8 601C300.3 601 262.7 601 225.2 601C187.7 601 150.3 601 112.8 601C75.3 601 37.7 601 18.8 601L0 601Z" fill="#d53867"></path><path d="M0 561L18.8 556.2C37.7 551.3 75.3 541.7 112.8 541C150.3 540.3 187.7 548.7 225.2 549.2C262.7 549.7 300.3 542.3 337.8 540.2C375.3 538 412.7 541 450.2 547.3C487.7 553.7 525.3 563.3 562.8 563.2C600.3 563 637.7 553 675.2 551.7C712.7 550.3 750.3 557.7 787.8 555.2C825.3 552.7 862.7 540.3 881.3 534.2L900 528L900 601L881.3 601C862.7 601 825.3 601 787.8 601C750.3 601 712.7 601 675.2 601C637.7 601 600.3 601 562.8 601C525.3 601 487.7 601 450.2 601C412.7 601 375.3 601 337.8 601C300.3 601 262.7 601 225.2 601C187.7 601 150.3 601 112.8 601C75.3 601 37.7 601 18.8 601L0 601Z" fill="#c62368"></path></svg>