 <svg
            xmlns="http://www.w3.org/2000/svg"
            width="166"
            height="50"
            fill="none"
            viewBox="0 0 166 50"
          >
          
            <g clipPath="url(#a)">
              <path fill="#FF638D" d="M67.5 3h-45v7.5h45V3Z" shapeRendering="crispEdges"/>
              <path fill="#CC0595" d="M120 3H75v7.5h45V3Z" shapeRendering="crispEdges"/>
              <path fill="#FF638D" d="M30 10.5h-7.5V18H30v-7.5Z" shapeRendering="crispEdges"/>
              <path fill="#fff" d="M45 10.5H30V18h15v-7.5Z" shapeRendering="crispEdges"/>
              <path fill="#000" d="M60 10.5H45V18h15v-7.5Z" shapeRendering="crispEdges"/>
              <path fill="#FF638D" d="M67.5 10.5H60V18h7.5v-7.5Z" shapeRendering="crispEdges"/>
              <path fill="#CC0595" d="M82.5 10.5H75V18h7.5v-7.5Z" shapeRendering="crispEdges"/>
              <path fill="#fff" d="M97.5 10.5h-15V18h15v-7.5Z" shapeRendering="crispEdges"/>
              <path fill="#000" d="M112.5 10.5h-15V18h15v-7.5Z" shapeRendering="crispEdges"/>
              <path
                fill="#CC0595"
                d="M120 10.5h-7.5V18h7.5v-7.5ZM22.5 18H0v7.5h22.5V18Z"
                shapeRendering="crispEdges"
              />
              <path fill="#FF638D" d="M30 18h-7.5v7.5H30V18Z" shapeRendering="crispEdges"/>
              <path fill="#fff" d="M45 18H30v7.5h15V18Z" shapeRendering="crispEdges"/>
              <path fill="#000" d="M60 18H45v7.5h15V18Z" shapeRendering="crispEdges"/>
              <path fill="#FF638D" d="M67.5 18H60v7.5h7.5V18Z" shapeRendering="crispEdges"/>
              <path fill="#CC0595" d="M82.5 18h-15v7.5h15V18Z" shapeRendering="crispEdges"/>
              <path fill="#fff" d="M97.5 18h-15v7.5h15V18Z" shapeRendering="crispEdges"/>
              <path fill="#000" d="M112.5 18h-15v7.5h15V18Z" shapeRendering="crispEdges"/>
              <path
                fill="#CC0595"
                d="M120 18h-7.5v7.5h7.5V18ZM7.5 25.5H0V33h7.5v-7.5Z"
                shapeRendering="crispEdges"
              />
              <path fill="#FF638D" d="M30 25.5h-7.5V33H30v-7.5Z" shapeRendering="crispEdges"/>
              <path fill="#fff" d="M45 25.5H30V33h15v-7.5Z" shapeRendering="crispEdges"/>
              <path fill="#000" d="M60 25.5H45V33h15v-7.5Z" shapeRendering="crispEdges"/>
              <path fill="#FF638D" d="M67.5 25.5H60V33h7.5v-7.5Z" shapeRendering="crispEdges"/>
              <path fill="#CC0595" d="M82.5 25.5H75V33h7.5v-7.5Z" shapeRendering="crispEdges"/>
              <path fill="#fff" d="M97.5 25.5h-15V33h15v-7.5Z" shapeRendering="crispEdges"/>
              <path fill="#000" d="M112.5 25.5h-15V33h15v-7.5Z" shapeRendering="crispEdges"/>
              <path
                fill="#CC0595"
                d="M120 25.5h-7.5V33h7.5v-7.5ZM7.5 33H0v7.5h7.5V33Z"
                shapeRendering="crispEdges"
              />
              <path fill="#FF638D" d="M30 33h-7.5v7.5H30V33Z" shapeRendering="crispEdges"/>
              <path fill="#fff" d="M45 33H30v7.5h15V33Z" shapeRendering="crispEdges"/>
              <path fill="#000" d="M60 33H45v7.5h15V33Z" shapeRendering="crispEdges"/>
              <path fill="#FF638D" d="M67.5 33H60v7.5h7.5V33Z" shapeRendering="crispEdges"/>
              <path fill="#CC0595" d="M82.5 33H75v7.5h7.5V33Z" shapeRendering="crispEdges"/>
              <path fill="#fff" d="M97.5 33h-15v7.5h15V33Z" shapeRendering="crispEdges"/>
              <path fill="#000" d="M112.5 33h-15v7.5h15V33Z" shapeRendering="crispEdges"/>
              <path fill="#CC0595" d="M120 33h-7.5v7.5h7.5V33Z" shapeRendering="crispEdges"/>
              <path fill="#FF638D" d="M67.5 40.5h-45V48h45v-7.5Z" shapeRendering="crispEdges"/>
              <path fill="#CC0595" d="M120 40.5H75V48h45v-7.5Z" shapeRendering="crispEdges"/>
            </g>
            <path
              fill="#AB36BE"
              d="M132.902 14.69c1.312-.98 3.56-.918 4.664.203C140.355 17.727 142 21.216 142 25c0 3.784-1.645 7.273-4.434 10.107-1.104 1.121-3.331 1.184-4.664.203-1.124-.826-1.186-2.134-.25-3.084 2.023-2.105 3.109-4.633 3.102-7.226 0-2.694-1.145-5.186-3.102-7.226-.916-.95-.853-2.258.25-3.084Z"
            />
            <path
              fill="#FF638D"
              d="M143.083 7.192c1.574-1.694 4.272-1.587 5.596.35C152.026 12.438 154 18.463 154 25c0 6.537-1.974 12.562-5.321 17.458-1.324 1.937-3.997 2.044-5.596.35-1.349-1.426-1.424-3.686-.3-5.327 2.427-3.636 3.73-8.003 3.722-12.481 0-4.654-1.374-8.958-3.722-12.482-1.099-1.64-1.024-3.9.3-5.326Z"
            />
            <path
              fill="#CC0595"
              d="M155.083 1.569c1.574-2.23 4.272-2.088 5.596.46C164.026 8.471 166 16.399 166 25c0 8.6-1.974 16.53-5.321 22.971-1.324 2.548-3.997 2.69-5.596.46-1.349-1.876-1.424-4.849-.3-7.008 2.427-4.785 3.73-10.53 3.722-16.423 0-6.123-1.374-11.786-3.722-16.423-1.099-2.16-1.024-5.132.3-7.008Z"
            />
            <defs>
              <clipPath id="a">
                <path
                  fill="#fff"
                  d="M0 0h120v45H0z"
                  transform="translate(0 3)"
                />
              </clipPath>
            </defs>
          </svg>