<svg id="visual" viewBox="0 0 900 350" width="900" height="350" xmlns="http://www.w3.org/2000/svg" xmlns:xlink="http://www.w3.org/1999/xlink" version="1.1"><rect x="0" y="0" width="900" height="350" fill="#202225"></rect><path d="M0 255L21.5 252C43 249 86 243 128.8 243.5C171.7 244 214.3 251 257.2 246.3C300 241.7 343 225.3 385.8 217.7C428.7 210 471.3 211 514.2 210.7C557 210.3 600 208.7 642.8 216.2C685.7 223.7 728.3 240.3 771.2 241.5C814 242.7 857 228.3 878.5 221.2L900 214L900 351L878.5 351C857 351 814 351 771.2 351C728.3 351 685.7 351 642.8 351C600 351 557 351 514.2 351C471.3 351 428.7 351 385.8 351C343 351 300 351 257.2 351C214.3 351 171.7 351 128.8 351C86 351 43 351 21.5 351L0 351Z" fill="#fa7268"></path><path d="M0 272L21.5 271.5C43 271 86 270 128.8 264.2C171.7 258.3 214.3 247.7 257.2 246.5C300 245.3 343 253.7 385.8 253.5C428.7 253.3 471.3 244.7 514.2 245.3C557 246 600 256 642.8 260.5C685.7 265 728.3 264 771.2 262.8C814 261.7 857 260.3 878.5 259.7L900 259L900 351L878.5 351C857 351 814 351 771.2 351C728.3 351 685.7 351 642.8 351C600 351 557 351 514.2 351C471.3 351 428.7 351 385.8 351C343 351 300 351 257.2 351C214.3 351 171.7 351 128.8 351C86 351 43 351 21.5 351L0 351Z" fill="#ef5f67"></path><path d="M0 278L21.5 277C43 276 86 274 128.8 275.3C171.7 276.7 214.3 281.3 257.2 280C300 278.7 343 271.3 385.8 273.2C428.7 275 471.3 286 514.2 284.5C557 283 600 269 642.8 263.7C685.7 258.3 728.3 261.7 771.2 268.2C814 274.7 857 284.3 878.5 289.2L900 294L900 351L878.5 351C857 351 814 351 771.2 351C728.3 351 685.7 351 642.8 351C600 351 557 351 514.2 351C471.3 351 428.7 351 385.8 351C343 351 300 351 257.2 351C214.3 351 171.7 351 128.8 351C86 351 43 351 21.5 351L0 351Z" fill="#e34c67"></path><path d="M0 300L21.5 299.2C43 298.3 86 296.7 128.8 296.5C171.7 296.3 214.3 297.7 257.2 299C300 300.3 343 301.7 385.8 300C428.7 298.3 471.3 293.7 514.2 293.3C557 293 600 297 642.8 296C685.7 295 728.3 289 771.2 289.3C814 289.7 857 296.3 878.5 299.7L900 303L900 351L878.5 351C857 351 814 351 771.2 351C728.3 351 685.7 351 642.8 351C600 351 557 351 514.2 351C471.3 351 428.7 351 385.8 351C343 351 300 351 257.2 351C214.3 351 171.7 351 128.8 351C86 351 43 351 21.5 351L0 351Z" fill="#d53867"></path><path d="M0 317L21.5 316.2C43 315.3 86 313.7 128.8 312.5C171.7 311.3 214.3 310.7 257.2 313.8C300 317 343 324 385.8 327.3C428.7 330.7 471.3 330.3 514.2 326.2C557 322 600 314 642.8 311.8C685.7 309.7 728.3 313.3 771.2 317C814 320.7 857 324.3 878.5 326.2L900 328L900 351L878.5 351C857 351 814 351 771.2 351C728.3 351 685.7 351 642.8 351C600 351 557 351 514.2 351C471.3 351 428.7 351 385.8 351C343 351 300 351 257.2 351C214.3 351 171.7 351 128.8 351C86 351 43 351 21.5 351L0 351Z" fill="#c62368"></path></svg>