<svg width="260" height="52" viewBox="0 0 260 52" fill="none" xmlns="http://www.w3.org/2000/svg">
<g clip-path="url(#clip0_1161_2716)">
<path d="M67.5 3.09131H22.5V10.8192H67.5V3.09131Z" fill="#FF638D"/>
<path d="M120 3.09131H75V10.8192H120V3.09131Z" fill="#CC0595"/>
<path d="M30 10.8193H22.5V18.5473H30V10.8193Z" fill="#FF638D"/>
<path d="M45 10.8193H30V18.5473H45V10.8193Z" fill="white"/>
<path d="M60 10.8193H45V18.5473H60V10.8193Z" fill="black"/>
<path d="M67.5 10.8193H60V18.5473H67.5V10.8193Z" fill="#FF638D"/>
<path d="M82.5 10.8193H75V18.5473H82.5V10.8193Z" fill="#CC0595"/>
<path d="M97.5 10.8193H82.5V18.5473H97.5V10.8193Z" fill="white"/>
<path d="M112.5 10.8193H97.5V18.5473H112.5V10.8193Z" fill="black"/>
<path d="M120 10.8193H112.5V18.5473H120V10.8193Z" fill="#CC0595"/>
<path d="M22.5 18.5474H0V26.2753H22.5V18.5474Z" fill="#CC0595"/>
<path d="M30 18.5474H22.5V26.2753H30V18.5474Z" fill="#FF638D"/>
<path d="M45 18.5474H30V26.2753H45V18.5474Z" fill="white"/>
<path d="M60 18.5474H45V26.2753H60V18.5474Z" fill="black"/>
<path d="M67.5 18.5474H60V26.2753H67.5V18.5474Z" fill="#FF638D"/>
<path d="M82.5 18.5474H67.5V26.2753H82.5V18.5474Z" fill="#CC0595"/>
<path d="M97.5 18.5474H82.5V26.2753H97.5V18.5474Z" fill="white"/>
<path d="M112.5 18.5474H97.5V26.2753H112.5V18.5474Z" fill="black"/>
<path d="M120 18.5474H112.5V26.2753H120V18.5474Z" fill="#CC0595"/>
<path d="M7.5 26.2749H0V34.0028H7.5V26.2749Z" fill="#CC0595"/>
<path d="M30 26.2749H22.5V34.0028H30V26.2749Z" fill="#FF638D"/>
<path d="M45 26.2749H30V34.0028H45V26.2749Z" fill="white"/>
<path d="M60 26.2749H45V34.0028H60V26.2749Z" fill="black"/>
<path d="M67.5 26.2749H60V34.0028H67.5V26.2749Z" fill="#FF638D"/>
<path d="M82.5 26.2749H75V34.0028H82.5V26.2749Z" fill="#CC0595"/>
<path d="M97.5 26.2749H82.5V34.0028H97.5V26.2749Z" fill="white"/>
<path d="M112.5 26.2749H97.5V34.0028H112.5V26.2749Z" fill="black"/>
<path d="M120 26.2749H112.5V34.0028H120V26.2749Z" fill="#CC0595"/>
<path d="M7.5 34.0029H0V41.7309H7.5V34.0029Z" fill="#CC0595"/>
<path d="M30 34.0029H22.5V41.7309H30V34.0029Z" fill="#FF638D"/>
<path d="M45 34.0029H30V41.7309H45V34.0029Z" fill="white"/>
<path d="M60 34.0029H45V41.7309H60V34.0029Z" fill="black"/>
<path d="M67.5 34.0029H60V41.7309H67.5V34.0029Z" fill="#FF638D"/>
<path d="M82.5 34.0029H75V41.7309H82.5V34.0029Z" fill="#CC0595"/>
<path d="M97.5 34.0029H82.5V41.7309H97.5V34.0029Z" fill="white"/>
<path d="M112.5 34.0029H97.5V41.7309H112.5V34.0029Z" fill="black"/>
<path d="M120 34.0029H112.5V41.7309H120V34.0029Z" fill="#CC0595"/>
<path d="M67.5 41.731H22.5V49.4589H67.5V41.731Z" fill="#FF638D"/>
<path d="M120 41.731H75V49.4589H120V41.731Z" fill="#CC0595"/>
</g>
<path d="M132.902 15.1366C134.214 14.1256 136.462 14.1898 137.566 15.3452C140.355 18.2657 142 21.8602 142 25.7596C142 29.659 140.355 33.2535 137.566 36.174C136.462 37.3294 134.235 37.3936 132.902 36.3826C131.778 35.5321 131.716 34.1842 132.652 33.2053C134.675 31.0362 135.761 28.431 135.754 25.7596C135.754 22.9835 134.609 20.416 132.652 18.3139C131.736 17.335 131.799 15.9871 132.902 15.1366Z" fill="#AB36BE"/>
<path d="M143.083 7.41072C144.657 5.66453 147.355 5.7754 148.679 7.77104C152.026 12.8156 154 19.0243 154 25.7596C154 32.4949 152.026 38.7036 148.679 43.7481C147.355 45.7438 144.682 45.8546 143.083 44.1084C141.734 42.6394 141.659 40.3112 142.783 38.6204C145.21 34.8737 146.513 30.3739 146.505 25.7596C146.505 20.9645 145.131 16.5297 142.783 12.8987C141.684 11.208 141.759 8.87974 143.083 7.41072Z" fill="#FF638D"/>
<path d="M155.083 1.61657C156.657 -0.681054 159.355 -0.535173 160.679 2.09068C164.026 8.72825 166 16.8976 166 25.7598C166 34.6221 164.026 42.7914 160.679 49.4289C159.355 52.0548 156.682 52.2007 155.083 49.903C153.734 47.9701 153.659 44.9066 154.783 42.682C157.21 37.752 158.513 31.8313 158.505 25.7598C158.505 19.4505 157.131 13.6152 154.783 8.83766C153.684 6.61298 153.759 3.54948 155.083 1.61657Z" fill="#CC0595"/>
<path d="M187.951 34.164C187.974 34.4813 187.974 34.7647 187.951 35.014C187.951 35.2633 187.974 35.5807 188.019 35.966C188.019 36.034 188.11 36.068 188.291 36.068C188.473 36.0907 188.677 36.0907 188.903 36.068C189.13 36.0453 189.357 36.0227 189.583 36C189.81 35.9547 189.969 35.932 190.059 35.932C190.331 35.9093 190.558 35.898 190.739 35.898C190.921 35.8753 191.091 35.864 191.249 35.864C191.408 35.864 191.578 35.8753 191.759 35.898C191.941 35.898 192.167 35.9093 192.439 35.932C192.53 32.94 192.541 30.05 192.473 27.262C192.428 24.474 192.405 21.686 192.405 18.898C191.861 18.9433 191.408 18.9547 191.045 18.932C190.683 18.9093 190.354 18.898 190.059 18.898C189.765 18.8753 189.47 18.8753 189.175 18.898C188.903 18.9207 188.575 18.9887 188.189 19.102V19.238C188.076 19.986 188.019 20.734 188.019 21.482C188.042 22.23 188.065 22.9893 188.087 23.76C188.133 24.508 188.167 25.2673 188.189 26.038C188.212 26.8087 188.201 27.5793 188.155 28.35C188.11 28.962 187.951 29.4267 187.679 29.744C187.407 30.0387 187.101 30.2427 186.761 30.356C186.421 30.4467 186.07 30.4693 185.707 30.424C185.367 30.356 185.107 30.2767 184.925 30.186C184.903 30.1633 184.88 30.152 184.857 30.152C184.835 30.152 184.812 30.1407 184.789 30.118C184.608 29.982 184.461 29.7893 184.347 29.54C184.257 29.2907 184.177 29.0073 184.109 28.69C184.064 28.3727 184.03 28.0553 184.007 27.738C183.985 27.398 183.962 27.092 183.939 26.82C183.894 26.208 183.86 25.5507 183.837 24.848C183.837 24.1453 183.837 23.4427 183.837 22.74C183.86 22.0373 183.871 21.3573 183.871 20.7C183.871 20.0427 183.849 19.4533 183.803 18.932C183.01 18.932 182.296 18.932 181.661 18.932C181.049 18.9093 180.347 18.9547 179.553 19.068C179.599 19.8387 179.61 20.734 179.587 21.754C179.565 22.774 179.542 23.8393 179.519 24.95C179.497 26.038 179.474 27.126 179.451 28.214C179.451 29.2793 179.463 30.2653 179.485 31.172C179.531 32.0787 179.61 32.8607 179.723 33.518C179.859 34.1527 180.041 34.572 180.267 34.776C180.743 35.184 181.276 35.4673 181.865 35.626C182.455 35.7847 183.055 35.8527 183.667 35.83C184.302 35.8073 184.914 35.694 185.503 35.49C186.093 35.286 186.625 35.014 187.101 34.674C187.215 34.5833 187.351 34.4927 187.509 34.402C187.691 34.3113 187.838 34.232 187.951 34.164ZM199.382 42.528C199.405 42.0747 199.416 41.7233 199.416 41.474C199.439 41.2473 199.45 41.032 199.45 40.828C199.473 40.6467 199.484 40.4427 199.484 40.216C199.507 40.012 199.518 39.706 199.518 39.298C199.518 38.9127 199.518 38.3913 199.518 37.734C199.518 37.0767 199.507 36.2153 199.484 35.15C199.529 35.354 199.779 35.5353 200.232 35.694C200.685 35.8527 201.241 35.9547 201.898 36C202.555 36.068 203.247 36.068 203.972 36C204.72 35.9547 205.4 35.8187 206.012 35.592C206.511 35.4107 206.93 35.1047 207.27 34.674C207.633 34.2207 207.916 33.688 208.12 33.076C208.347 32.4413 208.505 31.75 208.596 31.002C208.709 30.254 208.766 29.4833 208.766 28.69C208.721 27.5567 208.641 26.4347 208.528 25.324C208.415 24.2133 208.165 23.216 207.78 22.332C207.417 21.4253 206.862 20.6887 206.114 20.122C205.366 19.5327 204.346 19.1927 203.054 19.102C202.419 19.0113 201.819 19.068 201.252 19.272C200.685 19.4533 200.232 19.884 199.892 20.564C199.824 20.7 199.756 20.7453 199.688 20.7C199.643 20.632 199.597 20.5413 199.552 20.428C199.552 20.1787 199.541 19.986 199.518 19.85C199.518 19.714 199.518 19.5327 199.518 19.306C199.518 19.1927 199.507 19.1133 199.484 19.068C198.804 18.9773 198.045 18.9547 197.206 19C196.367 19.0227 195.597 19.034 194.894 19.034C194.849 20.666 194.826 22.366 194.826 24.134C194.849 25.8793 194.871 27.67 194.894 29.506C194.939 31.3193 194.985 33.1667 195.03 35.048C195.075 36.9293 195.098 38.8107 195.098 40.692V42.936C195.461 43.004 195.891 43.038 196.39 43.038C196.889 43.0607 197.353 43.0607 197.784 43.038C198.237 43.038 198.611 43.0153 198.906 42.97C199.223 42.9473 199.382 42.9247 199.382 42.902V42.528ZM204.652 29.71C204.539 30.5033 204.199 31.104 203.632 31.512C203.088 31.92 202.351 32.124 201.422 32.124C200.946 32.124 200.561 32.09 200.266 32.022C199.994 31.9313 199.79 31.75 199.654 31.478C199.518 31.206 199.427 30.8207 199.382 30.322C199.359 29.8007 199.348 29.098 199.348 28.214C199.348 27.5113 199.359 26.854 199.382 26.242C199.427 25.63 199.529 25.1087 199.688 24.678C199.869 24.2473 200.119 23.9073 200.436 23.658C200.753 23.4087 201.207 23.284 201.796 23.284C202.272 23.284 202.703 23.4087 203.088 23.658C203.473 23.9073 203.802 24.2473 204.074 24.678C204.346 25.086 204.55 25.562 204.686 26.106C204.822 26.6273 204.89 27.1713 204.89 27.738C204.89 28.0553 204.879 28.384 204.856 28.724C204.833 29.064 204.765 29.3927 204.652 29.71ZM210.802 11.282C210.598 13.3447 210.496 15.4073 210.496 17.47C210.518 19.5327 210.564 21.5953 210.632 23.658C210.7 25.7207 210.745 27.7833 210.768 29.846C210.813 31.9087 210.756 33.96 210.598 36C210.756 35.9547 211.074 35.9433 211.55 35.966C212.026 35.9887 212.524 36 213.046 36C213.59 36.0227 214.088 36.0227 214.542 36C214.995 36 215.278 35.932 215.392 35.796C215.346 34.8893 215.312 33.79 215.29 32.498C215.267 31.1833 215.256 29.778 215.256 28.282C215.256 26.786 215.256 25.2333 215.256 23.624C215.278 22.0147 215.301 20.462 215.324 18.966C215.346 17.47 215.369 16.0647 215.392 14.75C215.414 13.4353 215.426 12.3133 215.426 11.384L210.802 11.282ZM221.853 18.898C221.128 18.9207 220.505 18.9207 219.983 18.898C219.462 18.8753 219.054 18.8527 218.759 18.83C218.646 18.83 218.476 18.8187 218.249 18.796C218.045 18.7733 217.898 18.7733 217.807 18.796V18.83C217.671 20.1673 217.603 21.55 217.603 22.978C217.603 24.3833 217.626 25.8113 217.671 27.262C217.717 28.7127 217.739 30.1747 217.739 31.648C217.762 33.1213 217.717 34.572 217.603 36C217.762 35.9547 218.079 35.9433 218.555 35.966C219.031 35.9887 219.53 36 220.051 36C220.595 36.0227 221.094 36.0227 221.547 36C222.001 36 222.284 35.932 222.397 35.796C222.239 33.0533 222.193 30.254 222.261 27.398C222.352 24.542 222.409 21.7427 222.431 19V18.898H221.853ZM217.671 11.486C217.649 12.5287 217.66 13.4127 217.705 14.138C217.773 14.8407 217.807 15.5207 217.807 16.178C218.238 16.1553 218.703 16.1667 219.201 16.212C219.7 16.2347 220.165 16.2573 220.595 16.28C221.049 16.28 221.434 16.2573 221.751 16.212C222.091 16.1667 222.307 16.076 222.397 15.94C222.397 15.6 222.386 15.2147 222.363 14.784C222.363 14.3307 222.352 13.9 222.329 13.492C222.329 13.0613 222.318 12.676 222.295 12.336C222.295 11.9733 222.295 11.724 222.295 11.588L217.671 11.486ZM229.267 20.836C229.244 20.5187 229.233 20.2353 229.233 19.986C229.255 19.7367 229.244 19.4193 229.199 19.034C229.199 18.966 229.108 18.932 228.927 18.932C228.745 18.9093 228.541 18.9093 228.315 18.932C228.088 18.9547 227.861 18.9887 227.635 19.034C227.408 19.0567 227.249 19.068 227.159 19.068C226.887 19.0907 226.66 19.1133 226.479 19.136C226.297 19.136 226.127 19.136 225.969 19.136C225.81 19.136 225.64 19.136 225.459 19.136C225.277 19.1133 225.051 19.0907 224.779 19.068C224.688 22.06 224.665 24.95 224.711 27.738C224.779 30.526 224.813 33.314 224.813 36.102C225.357 36.0567 225.81 36.0453 226.173 36.068C226.535 36.0907 226.864 36.102 227.159 36.102C227.453 36.1247 227.737 36.1247 228.009 36.102C228.303 36.0793 228.643 36.0113 229.029 35.898V35.762C229.119 35.014 229.165 34.266 229.165 33.518C229.165 32.77 229.142 32.022 229.097 31.274C229.074 30.5033 229.051 29.744 229.029 28.996C229.006 28.2253 229.017 27.4433 229.063 26.65C229.108 26.038 229.267 25.5847 229.539 25.29C229.811 24.9727 230.117 24.7687 230.457 24.678C230.797 24.5647 231.137 24.542 231.477 24.61C231.839 24.6553 232.111 24.7233 232.293 24.814C232.315 24.8367 232.338 24.848 232.361 24.848C232.383 24.848 232.406 24.8593 232.429 24.882C232.61 25.018 232.746 25.2107 232.837 25.46C232.95 25.7093 233.029 25.9927 233.075 26.31C233.143 26.6273 233.188 26.956 233.211 27.296C233.233 27.6133 233.256 27.908 233.279 28.18C233.324 28.792 233.347 29.4493 233.347 30.152C233.369 30.8547 233.369 31.5573 233.347 32.26C233.347 32.9627 233.347 33.6427 233.347 34.3C233.347 34.9573 233.369 35.5467 233.415 36.068C234.208 36.068 234.911 36.068 235.523 36.068C236.157 36.0907 236.871 36.0453 237.665 35.932C237.619 35.1613 237.608 34.266 237.631 33.246C237.653 32.226 237.676 31.172 237.699 30.084C237.721 28.9733 237.733 27.8853 237.733 26.82C237.755 25.732 237.744 24.7347 237.699 23.828C237.676 22.9213 237.597 22.1507 237.461 21.516C237.347 20.8587 237.177 20.428 236.951 20.224C236.475 19.816 235.942 19.5327 235.353 19.374C234.763 19.2153 234.151 19.1473 233.517 19.17C232.905 19.1927 232.304 19.306 231.715 19.51C231.125 19.714 230.593 19.986 230.117 20.326C230.003 20.4167 229.856 20.5073 229.675 20.598C229.516 20.6887 229.38 20.768 229.267 20.836ZM244.743 11.316C244.448 11.2707 244.108 11.248 243.723 11.248C243.338 11.248 242.93 11.2593 242.499 11.282C242.091 11.282 241.672 11.2933 241.241 11.316C240.833 11.316 240.459 11.316 240.119 11.316C240.142 15.4413 240.108 19.5327 240.017 23.59C239.926 27.6473 239.96 31.784 240.119 36C240.459 36.0453 240.833 36.068 241.241 36.068C241.672 36.068 242.091 36.0567 242.499 36.034C242.907 36.0113 243.292 36 243.655 36C244.04 35.9773 244.358 35.9773 244.607 36C244.698 35.5013 244.754 34.9573 244.777 34.368C244.8 33.756 244.811 33.1553 244.811 32.566C244.811 31.9767 244.8 31.41 244.777 30.866C244.754 30.322 244.743 29.846 244.743 29.438C245.128 29.9367 245.468 30.458 245.763 31.002C246.08 31.546 246.375 32.1013 246.647 32.668C246.919 33.212 247.191 33.7673 247.463 34.334C247.758 34.9007 248.075 35.456 248.415 36C248.755 36.068 249.163 36.1133 249.639 36.136C250.138 36.1587 250.648 36.1587 251.169 36.136C251.69 36.1133 252.189 36.0793 252.665 36.034C253.164 36.0113 253.572 36 253.889 36C253.028 34.2547 252.076 32.5773 251.033 30.968C250.013 29.336 248.993 27.6927 247.973 26.038C248.925 24.7687 249.888 23.5107 250.863 22.264C251.838 20.9947 252.744 19.714 253.583 18.422C253.266 18.3993 252.858 18.4107 252.359 18.456C251.86 18.4787 251.35 18.5013 250.829 18.524C250.33 18.524 249.843 18.524 249.367 18.524C248.891 18.5013 248.506 18.4333 248.211 18.32C247.871 18.7053 247.565 19.1133 247.293 19.544C247.044 19.9747 246.794 20.4053 246.545 20.836C246.296 21.244 246.024 21.652 245.729 22.06C245.457 22.468 245.128 22.842 244.743 23.182C244.675 22.6607 244.652 21.9807 244.675 21.142C244.72 20.3033 244.743 19.51 244.743 18.762V11.316Z" fill="white"/>
<defs>
<clipPath id="clip0_1161_2716">
<rect width="120" height="46.3676" fill="white" transform="translate(0 3.09131)"/>
</clipPath>
</defs>
</svg>
