<svg width="166" height="52" viewBox="0 0 166 52" fill="none" xmlns="http://www.w3.org/2000/svg">
<g clip-path="url(#clip0_1167_2899)">
<path d="M67.5 3.09131H22.5V10.8192H67.5V3.09131Z" fill="#FF638D"/>
<path d="M120 3.09131H75V10.8192H120V3.09131Z" fill="#CC0595"/>
<path d="M30 10.8193H22.5V18.5473H30V10.8193Z" fill="#FF638D"/>
<path d="M45 10.8193H30V18.5473H45V10.8193Z" fill="white"/>
<path d="M60 10.8193H45V18.5473H60V10.8193Z" fill="black"/>
<path d="M67.5 10.8193H60V18.5473H67.5V10.8193Z" fill="#FF638D"/>
<path d="M82.5 10.8193H75V18.5473H82.5V10.8193Z" fill="#CC0595"/>
<path d="M97.5 10.8193H82.5V18.5473H97.5V10.8193Z" fill="white"/>
<path d="M112.5 10.8193H97.5V18.5473H112.5V10.8193Z" fill="black"/>
<path d="M120 10.8193H112.5V18.5473H120V10.8193Z" fill="#CC0595"/>
<path d="M22.5 18.5474H0V26.2753H22.5V18.5474Z" fill="#CC0595"/>
<path d="M30 18.5474H22.5V26.2753H30V18.5474Z" fill="#FF638D"/>
<path d="M45 18.5474H30V26.2753H45V18.5474Z" fill="white"/>
<path d="M60 18.5474H45V26.2753H60V18.5474Z" fill="black"/>
<path d="M67.5 18.5474H60V26.2753H67.5V18.5474Z" fill="#FF638D"/>
<path d="M82.5 18.5474H67.5V26.2753H82.5V18.5474Z" fill="#CC0595"/>
<path d="M97.5 18.5474H82.5V26.2753H97.5V18.5474Z" fill="white"/>
<path d="M112.5 18.5474H97.5V26.2753H112.5V18.5474Z" fill="black"/>
<path d="M120 18.5474H112.5V26.2753H120V18.5474Z" fill="#CC0595"/>
<path d="M7.5 26.2749H0V34.0028H7.5V26.2749Z" fill="#CC0595"/>
<path d="M30 26.2749H22.5V34.0028H30V26.2749Z" fill="#FF638D"/>
<path d="M45 26.2749H30V34.0028H45V26.2749Z" fill="white"/>
<path d="M60 26.2749H45V34.0028H60V26.2749Z" fill="black"/>
<path d="M67.5 26.2749H60V34.0028H67.5V26.2749Z" fill="#FF638D"/>
<path d="M82.5 26.2749H75V34.0028H82.5V26.2749Z" fill="#CC0595"/>
<path d="M97.5 26.2749H82.5V34.0028H97.5V26.2749Z" fill="white"/>
<path d="M112.5 26.2749H97.5V34.0028H112.5V26.2749Z" fill="black"/>
<path d="M120 26.2749H112.5V34.0028H120V26.2749Z" fill="#CC0595"/>
<path d="M7.5 34.0029H0V41.7309H7.5V34.0029Z" fill="#CC0595"/>
<path d="M30 34.0029H22.5V41.7309H30V34.0029Z" fill="#FF638D"/>
<path d="M45 34.0029H30V41.7309H45V34.0029Z" fill="white"/>
<path d="M60 34.0029H45V41.7309H60V34.0029Z" fill="black"/>
<path d="M67.5 34.0029H60V41.7309H67.5V34.0029Z" fill="#FF638D"/>
<path d="M82.5 34.0029H75V41.7309H82.5V34.0029Z" fill="#CC0595"/>
<path d="M97.5 34.0029H82.5V41.7309H97.5V34.0029Z" fill="white"/>
<path d="M112.5 34.0029H97.5V41.7309H112.5V34.0029Z" fill="black"/>
<path d="M120 34.0029H112.5V41.7309H120V34.0029Z" fill="#CC0595"/>
<path d="M67.5 41.731H22.5V49.4589H67.5V41.731Z" fill="#FF638D"/>
<path d="M120 41.731H75V49.4589H120V41.731Z" fill="#CC0595"/>
</g>
<path d="M132.902 15.1366C134.214 14.1256 136.462 14.1898 137.566 15.3452C140.355 18.2657 142 21.8602 142 25.7596C142 29.659 140.355 33.2535 137.566 36.174C136.462 37.3294 134.235 37.3936 132.902 36.3826C131.778 35.5321 131.716 34.1842 132.652 33.2053C134.675 31.0362 135.761 28.431 135.754 25.7596C135.754 22.9835 134.609 20.416 132.652 18.3139C131.736 17.335 131.799 15.9871 132.902 15.1366Z" fill="#AB36BE"/>
<path d="M143.083 7.41072C144.657 5.66453 147.355 5.7754 148.679 7.77104C152.026 12.8156 154 19.0243 154 25.7596C154 32.4949 152.026 38.7036 148.679 43.7481C147.355 45.7438 144.682 45.8546 143.083 44.1084C141.734 42.6394 141.659 40.3112 142.783 38.6204C145.21 34.8737 146.513 30.3739 146.505 25.7596C146.505 20.9645 145.131 16.5297 142.783 12.8987C141.684 11.208 141.759 8.87974 143.083 7.41072Z" fill="#FF638D"/>
<path d="M155.083 1.61657C156.657 -0.681054 159.355 -0.535173 160.679 2.09068C164.026 8.72825 166 16.8976 166 25.7598C166 34.6221 164.026 42.7914 160.679 49.4289C159.355 52.0548 156.682 52.2007 155.083 49.903C153.734 47.9701 153.659 44.9066 154.783 42.682C157.21 37.752 158.513 31.8313 158.505 25.7598C158.505 19.4505 157.131 13.6152 154.783 8.83766C153.684 6.61298 153.759 3.54948 155.083 1.61657Z" fill="#CC0595"/>
<defs>
<clipPath id="clip0_1167_2899">
<rect width="120" height="46.3676" fill="white" transform="translate(0 3.09131)"/>
</clipPath>
</defs>
</svg>
